HIERARCHY
ROOT Hips
{
  OFFSET 50.1917 100.473 14.5906
  CHANNELS 6 Xposition Yposition Zposition Zrotation Xrotation Yrotation
  JOINT spine
  {
    OFFSET 0 8.81705 0.507024
    CHANNELS 3 Zrotation Xrotation Yrotation
    JOINT spine1
    {
      OFFSET 0 10.7766 0
      CHANNELS 3 Zrotation Xrotation Yrotation
      JOINT spine2
      {
        OFFSET 0 10.3259 0
        CHANNELS 3 Zrotation Xrotation Yrotation
        JOINT Neck
        {
          OFFSET 0 26.511 1.26395
          CHANNELS 3 Zrotation Xrotation Yrotation
          JOINT Head
          {
            OFFSET 0 8.00966 0
            CHANNELS 3 Zrotation Xrotation Yrotation
            End Site
            {
              OFFSET 0 19.3879 -6.39386
            }
          }
        }
        JOINT RightShoulder
        {
          OFFSET -4.34795 11.1512 -0.605422
          CHANNELS 3 Zrotation Xrotation Yrotation
          JOINT RightArm
          {
            OFFSET 0 14.6258 0
            CHANNELS 3 Zrotation Xrotation Yrotation
            JOINT RightArmRoll
            {
              OFFSET 0 7.3834 0
              CHANNELS 3 Zrotation Xrotation Yrotation
              JOINT RightForeArm
              {
                OFFSET 0 21.5052 0
                CHANNELS 3 Zrotation Xrotation Yrotation
                JOINT RightForeArmRoll
                {
                  OFFSET 0 8.28532 0
                  CHANNELS 3 Zrotation Xrotation Yrotation
                  JOINT RightHand
                  {
                    OFFSET 0 16.6268 0
                    CHANNELS 3 Zrotation Xrotation Yrotation
                    End Site
                    {
                      OFFSET 0 0 0
                    }
                  }
                }
              }
            }
          }
        }
        JOINT LeftShoulder
        {
          OFFSET 4.34795 11.1512 -0.605422
          CHANNELS 3 Zrotation Xrotation Yrotation
          JOINT LeftArm
          {
            OFFSET 0 14.6258 0
            CHANNELS 3 Zrotation Xrotation Yrotation
            JOINT LeftArmRoll
            {
              OFFSET 0 7.3834 0
              CHANNELS 3 Zrotation Xrotation Yrotation
              JOINT LeftForeArm
              {
                OFFSET 0 21.5052 0
                CHANNELS 3 Zrotation Xrotation Yrotation
                JOINT LeftForeArmRoll
                {
                  OFFSET 0 8.28532 0
                  CHANNELS 3 Zrotation Xrotation Yrotation
                  JOINT LeftHand
                  {
                    OFFSET 0 16.6268 0
                    CHANNELS 3 Zrotation Xrotation Yrotation
                    End Site
                    {
                      OFFSET 0 0 0
                    }
                  }
                }
              }
            }
          }
        }
      }
    }
  }
  JOINT RightUpLeg
  {
    OFFSET -7.8151 -1.43309 -1.20217
    CHANNELS 3 Zrotation Xrotation Yrotation
    JOINT RightUpLegRoll
    {
      OFFSET 0 19.4959 0
      CHANNELS 3 Zrotation Xrotation Yrotation
      JOINT RightLeg
      {
        OFFSET 0 -24.1427 0
        CHANNELS 3 Zrotation Xrotation Yrotation
        JOINT RightLegRoll
        {
          OFFSET 0 24.2217 0
          CHANNELS 3 Zrotation Xrotation Yrotation
          JOINT RightFoot
          {
            OFFSET 0 20.1605 0
            CHANNELS 3 Zrotation Xrotation Yrotation
            JOINT RightToeBase
            {
              OFFSET 0 16.8532 0
              CHANNELS 3 Zrotation Xrotation Yrotation
              End Site
              {
                OFFSET 0.00714343 8.16187 -0.94078
              }
            }
          }
        }
      }
    }
  }
  JOINT LeftUpLeg
  {
    OFFSET 7.8151 -1.43309 -1.20217
    CHANNELS 3 Zrotation Xrotation Yrotation
    JOINT LeftUpLegRoll
    {
      OFFSET 0 19.496 0
      CHANNELS 3 Zrotation Xrotation Yrotation
      JOINT LeftLeg
      {
        OFFSET 0 24.1426 0
        CHANNELS 3 Zrotation Xrotation Yrotation
        JOINT LeftLegRoll
        {
          OFFSET 0 24.4456 0
          CHANNELS 3 Zrotation Xrotation Yrotation
          JOINT LeftFoot
          {
            OFFSET 0 19.9366 0
            CHANNELS 3 Zrotation Xrotation Yrotation
            JOINT LeftToeBase
            {
              OFFSET 0 16.8532 0
              CHANNELS 3 Zrotation Xrotation Yrotation
              End Site
              {
                OFFSET -0.0320138 8.16187 -0.94078
              }
            }
          }
        }
      }
    }
  }
}
MOTION
Frames: 6
Frame Time: 0.00208333
52.7009 100.223 10.624 0.0289322 -2.23455 27.0084 0.421114 -0.0809102 0.780762 0.837337 3.84661 1.50411 0.820386 5.49135 1.49167 -29.0519 16.5665 21.5467 -3.96137 -11.3349 12.5812 32.1055 15.4799 18.7625 169.393 37.3405 -83.3435 5.15651e-006 -5.0928e-006 5.51883e-006 39.5694 60.4197 -25.4542 -1.10839e-005 -6.37681e-006 -3.0037 8.02909 -4.95131 0.697485 -70.3656 -15.3902 8.94554 -70.9915 -1.23251 45.7027 -1.49498e-006 -3.68791e-007 6.73692e-007 123.907 88.3684 -117.461 1.3473e-005 6.78244e-008 2.99999 -8.03008 -4.95121 -0.697577 173.799 6.0961 2.15741 180 7.01497e-015 178.723 179.66 20.5479 179.279 2.07828e-006 -6.62033e-007 0.558206 -21.3634 71.2016 22.6025 8.18373 26.8442 -1.39208 -174.018 5.92379 0.693092 4.54188e-006 -4.6773e-006 -0.94458 -2.22435 -13.2602 0.316847 1.96951e-006 -2.57939e-006 -0.133074 18.5443 70.3653 -21.5803 -8.13025 25.233 3.48508 
52.6632 100.213 10.6369 0.0126722 -2.21414 27.0426 0.414601 -0.0869372 0.779158 0.824372 3.83446 1.50204 0.807438 5.4792 1.48981 -28.7186 16.5599 21.4942 -4.185 -11.2458 12.5853 32.4908 15.4991 18.6207 169.074 37.305 -83.1848 5.15651e-006 -5.0928e-006 5.51883e-006 39.6056 60.3628 -25.4086 -1.10839e-005 -6.37681e-006 -3.0037 8.02909 -4.95131 0.697485 -70.1177 -15.4739 9.00418 -71.1364 -1.17708 45.7016 -1.49498e-006 -3.68791e-007 6.73692e-007 120.233 88.483 -113.875 1.3473e-005 6.78244e-008 2.99999 -8.03008 -4.95121 -0.697577 173.791 6.09675 2.18573 180 7.01496e-015 178.722 179.618 20.4996 179.287 2.07828e-006 -6.62033e-007 0.558085 -21.3604 71.1993 22.6016 8.1836 26.8338 -1.40502 -173.996 5.97388 0.691219 4.54188e-006 -4.6773e-006 -0.9426 -2.21194 -13.2875 0.319984 1.96951e-006 -2.57939e-006 -0.133785 18.5319 70.3694 -21.5832 -8.13025 25.233 3.48508 
52.6145 100.212 10.6341 -0.0047984 -2.19338 27.0763 0.407842 -0.0930804 0.777477 0.810916 3.82208 1.49983 0.793999 5.46682 1.48783 -28.3774 16.553 21.4409 -4.41454 -11.1549 12.5895 32.8823 15.5183 18.4763 168.755 37.2677 -83.0331 5.15651e-006 -5.0928e-006 5.51883e-006 39.6457 60.3065 -25.3651 -1.10839e-005 -6.37681e-006 -3.0037 8.02909 -4.95131 0.697485 -69.8632 -15.5599 9.06446 -71.2845 -1.1232 45.7069 -1.49498e-006 -3.68791e-007 6.73692e-007 116.08 88.587 -109.806 1.3473e-005 6.78244e-008 2.99999 -8.03008 -4.95121 -0.697577 173.783 6.0983 2.21507 180 7.01496e-015 178.721 179.575 20.45 179.296 2.07828e-006 -6.62033e-007 0.557904 -21.3555 71.1953 22.5988 8.18346 26.8234 -1.41784 -173.973 6.02522 0.689022 4.54188e-006 -4.6773e-006 -0.940572 -2.19958 -13.3154 0.323102 1.96951e-006 -2.57939e-006 -0.134552 18.5197 70.3737 -21.5863 -8.13025 25.233 3.48508 
52.5799 100.208 10.6551 -0.0231241 -2.17237 27.1097 0.40091 -0.0993048 0.775742 0.797115 3.80953 1.49753 0.780217 5.45427 1.48576 -28.0306 16.546 21.3868 -4.64823 -11.0629 12.594 33.2783 15.5376 18.3301 168.437 37.229 -82.8864 5.15651e-006 -5.0928e-006 5.51883e-006 39.6886 60.2506 -25.3231 -1.10839e-005 -6.37681e-006 -3.0037 8.02909 -4.95131 0.697485 -69.604 -15.6475 9.12592 -71.4348 -1.07042 45.7168 -1.49498e-006 -3.68791e-007 6.73692e-007 111.38 88.6804 -105.188 1.3473e-005 6.78244e-008 2.99999 -8.03008 -4.95121 -0.697577 173.775 6.10048 2.24513 180 7.01496e-015 178.719 179.531 20.3994 179.304 2.07828e-006 -6.62033e-007 0.557683 -21.3493 71.19 22.5947 8.18331 26.8132 -1.43056 -173.95 6.07743 0.686597 4.54188e-006 -4.6773e-006 -0.938511 -2.18725 -13.3438 0.326207 1.96951e-006 -2.57939e-006 -0.135357 18.5077 70.3783 -21.5896 -8.13025 25.233 3.48508 
52.546 100.201 10.6646 -0.0419484 -2.15123 27.1428 0.393879 -0.105576 0.773976 0.783117 3.79688 1.49519 0.766239 5.44163 1.48365 -27.6807 16.5389 21.3324 -4.8843 -10.9702 12.5986 33.6769 15.5569 18.1828 168.119 37.1894 -82.7426 5.15651e-006 -5.0928e-006 5.51883e-006 39.7332 60.195 -25.2821 -1.10839e-005 -6.37681e-006 -3.0037 8.02909 -4.95131 0.697485 -69.3421 -15.7361 9.1881 -71.5865 -1.01829 45.7292 -1.49498e-006 -3.68791e-007 6.73692e-007 106.068 88.7627 -99.9554 1.3473e-005 6.78244e-008 2.99999 -8.03008 -4.95121 -0.697577 173.766 6.10302 2.27561 180 7.01495e-015 178.718 179.486 20.3483 179.313 2.07828e-006 -6.62033e-007 0.557437 -21.3423 71.1841 22.5899 8.18315 26.8029 -1.44323 -173.927 6.13014 0.684044 4.54188e-006 -4.6773e-006 -0.936432 -2.17493 -13.3725 0.329306 1.96951e-006 -2.57939e-006 -0.136184 18.4958 70.3829 -21.593 -8.13025 25.233 3.48508 
52.5073 100.199 10.6793 -0.0609158 -2.13006 27.1759 0.386823 -0.111858 0.772203 0.769069 3.78421 1.49282 0.752211 5.42897 1.48152 -27.33 16.5318 21.2778 -5.12097 -10.8774 12.6032 34.0762 15.5761 18.0352 167.802 37.1492 -82.5999 5.15651e-006 -5.0928e-006 5.51883e-006 39.7783 60.1394 -25.2414 -1.10839e-005 -6.37681e-006 -3.0037 8.02909 -4.95131 0.697485 -69.0794 -15.8248 9.25051 -71.7385 -0.966334 45.7423 -1.49498e-006 -3.68791e-007 6.73692e-007 100.082 88.833 -94.049 1.3473e-005 6.78244e-008 2.99999 -8.03008 -4.95121 -0.697577 173.757 6.10564 2.30618 180 7.01495e-015 178.717 179.441 20.2971 179.322 2.07828e-006 -6.62033e-007 0.557186 -21.3352 71.178 22.5848 8.18299 26.7927 -1.45588 -173.903 6.18298 0.681458 4.54188e-006 -4.6773e-006 -0.934347 -2.16262 -13.4012 0.332403 1.96951e-006 -2.57939e-006 -0.137017 18.4839 70.3876 -21.5964 -8.13025 25.233 3.48508 
